
<global>
amp_veltrack=0
ampeg_attack=0.001
ampeg_release=1.25
</global>

<group>
color=red
group_label=Main_Hits_RR1
seq_length=8
seq_position=1

<region>
hivel=25
key=D3
lovel=0
offset=864
sample=Snare_SnareOn_Sticks_Hits_P_D3_RR1.opus
</region>

<region>
hivel=50
key=D3
lovel=26
offset=864
sample=Snare_SnareOn_Sticks_Hits_MP_D3_RR1.opus
</region>

<region>
hivel=75
key=D3
lovel=51
offset=625
sample=Snare_SnareOn_Sticks_Hits_MF_D3_RR1.opus
</region>

<region>
hivel=127
key=D3
lovel=101
offset=716
sample=Snare_SnareOn_Sticks_Hits_FF_D3_RR1.opus
</region>

<region>
hivel=100
key=D3
lovel=76
offset=619
sample=Snare_SnareOn_Sticks_Hits_F_D3_RR1.opus
</region>

<region>
hivel=25
key=D#3
lovel=0
offset=2245
sample=Snare_SnareOn_Sticks_Halfway_Hits_P_D3_RR1.opus
</region>

<region>
hivel=50
key=D#3
lovel=26
offset=864
sample=Snare_SnareOn_Sticks_Halfway_Hits_MP_D3_RR1.opus
</region>

<region>
hivel=75
key=D#3
lovel=51
offset=717
sample=Snare_SnareOn_Sticks_Halfway_Hits_MF_D3_RR1.opus
</region>

<region>
hivel=127
key=D#3
lovel=101
offset=722
sample=Snare_SnareOn_Sticks_Halfway_Hits_FF_D3_RR1.opus
</region>

<region>
hivel=100
key=D#3
lovel=76
offset=722
sample=Snare_SnareOn_Sticks_Halfway_Hits_F_D3_RR1.opus
</region>

<region>
hivel=25
key=E3
lovel=0
offset=4708
sample=Snare_SnareOn_Sticks_Edge_Hits_P_D3_RR1.opus
</region>

<region>
hivel=50
key=E3
lovel=26
offset=865
sample=Snare_SnareOn_Sticks_Edge_Hits_MP_D3_RR1.opus
</region>

<region>
hivel=75
key=E3
lovel=51
offset=762
sample=Snare_SnareOn_Sticks_Edge_Hits_MF_D3_RR1.opus
</region>

<region>
hivel=127
key=E3
lovel=101
offset=707
sample=Snare_SnareOn_Sticks_Edge_Hits_FF_D3_RR1.opus
</region>

<region>
hivel=100
key=E3
lovel=76
offset=726
sample=Snare_SnareOn_Sticks_Edge_Hits_F_D3_RR1.opus
</region>
</group>

<group>
color=red
group_label=Main_Hits_RR2
seq_length=8
seq_position=2

<region>
hivel=25
key=D3
lovel=0
offset=864
sample=Snare_SnareOn_Sticks_Hits_P_D3_RR2.opus
</region>

<region>
hivel=50
key=D3
lovel=26
offset=795
sample=Snare_SnareOn_Sticks_Hits_MP_D3_RR2.opus
</region>

<region>
hivel=75
key=D3
lovel=51
offset=743
sample=Snare_SnareOn_Sticks_Hits_MF_D3_RR2.opus
</region>

<region>
hivel=127
key=D3
lovel=101
offset=708
sample=Snare_SnareOn_Sticks_Hits_FF_D3_RR2.opus
</region>

<region>
hivel=100
key=D3
lovel=76
offset=710
sample=Snare_SnareOn_Sticks_Hits_F_D3_RR2.opus
</region>

<region>
hivel=25
key=D#3
lovel=0
offset=864
sample=Snare_SnareOn_Sticks_Halfway_Hits_P_D3_RR2.opus
</region>

<region>
hivel=50
key=D#3
lovel=26
offset=864
sample=Snare_SnareOn_Sticks_Halfway_Hits_MP_D3_RR2.opus
</region>

<region>
hivel=75
key=D#3
lovel=51
offset=766
sample=Snare_SnareOn_Sticks_Halfway_Hits_MF_D3_RR2.opus
</region>

<region>
hivel=127
key=D#3
lovel=101
offset=588
sample=Snare_SnareOn_Sticks_Halfway_Hits_FF_D3_RR2.opus
</region>

<region>
hivel=100
key=D#3
lovel=76
offset=622
sample=Snare_SnareOn_Sticks_Halfway_Hits_F_D3_RR2.opus
</region>

<region>
hivel=25
key=E3
lovel=0
offset=2682
sample=Snare_SnareOn_Sticks_Edge_Hits_P_D3_RR2.opus
</region>

<region>
hivel=50
key=E3
lovel=26
offset=864
sample=Snare_SnareOn_Sticks_Edge_Hits_MP_D3_RR2.opus
</region>

<region>
hivel=75
key=E3
lovel=51
offset=759
sample=Snare_SnareOn_Sticks_Edge_Hits_MF_D3_RR2.opus
</region>

<region>
hivel=127
key=E3
lovel=101
offset=711
sample=Snare_SnareOn_Sticks_Edge_Hits_FF_D3_RR2.opus
</region>

<region>
hivel=100
key=E3
lovel=76
offset=742
sample=Snare_SnareOn_Sticks_Edge_Hits_F_D3_RR2.opus
</region>
</group>

<group>
color=red
group_label=Main_Hits_RR3
seq_length=8
seq_position=3

<region>
hivel=25
key=D3
lovel=0
offset=864
sample=Snare_SnareOn_Sticks_Hits_P_D3_RR3.opus
</region>

<region>
hivel=50
key=D3
lovel=26
offset=743
sample=Snare_SnareOn_Sticks_Hits_MP_D3_RR3.opus
</region>

<region>
hivel=75
key=D3
lovel=51
offset=771
sample=Snare_SnareOn_Sticks_Hits_MF_D3_RR3.opus
</region>

<region>
hivel=127
key=D3
lovel=101
offset=624
sample=Snare_SnareOn_Sticks_Hits_FF_D3_RR3.opus
</region>

<region>
hivel=100
key=D3
lovel=76
offset=623
sample=Snare_SnareOn_Sticks_Hits_F_D3_RR3.opus
</region>

<region>
hivel=25
key=D#3
lovel=0
offset=865
sample=Snare_SnareOn_Sticks_Halfway_Hits_P_D3_RR3.opus
</region>

<region>
hivel=50
key=D#3
lovel=26
offset=864
sample=Snare_SnareOn_Sticks_Halfway_Hits_MP_D3_RR3.opus
</region>

<region>
hivel=75
key=D#3
lovel=51
offset=840
sample=Snare_SnareOn_Sticks_Halfway_Hits_MF_D3_RR3.opus
</region>

<region>
hivel=127
key=D#3
lovel=101
offset=622
sample=Snare_SnareOn_Sticks_Halfway_Hits_FF_D3_RR3.opus
</region>

<region>
hivel=100
key=D#3
lovel=76
offset=706
sample=Snare_SnareOn_Sticks_Halfway_Hits_F_D3_RR3.opus
</region>

<region>
hivel=25
key=E3
lovel=0
offset=4796
sample=Snare_SnareOn_Sticks_Edge_Hits_P_D3_RR3.opus
</region>

<region>
hivel=50
key=E3
lovel=26
offset=864
sample=Snare_SnareOn_Sticks_Edge_Hits_MP_D3_RR3.opus
</region>

<region>
hivel=75
key=E3
lovel=51
offset=864
sample=Snare_SnareOn_Sticks_Edge_Hits_MF_D3_RR3.opus
</region>

<region>
hivel=127
key=E3
lovel=101
offset=625
sample=Snare_SnareOn_Sticks_Edge_Hits_FF_D3_RR3.opus
</region>

<region>
hivel=100
key=E3
lovel=76
offset=741
sample=Snare_SnareOn_Sticks_Edge_Hits_F_D3_RR3.opus
</region>
</group>

<group>
color=red
group_label=Main_Hits_RR4
seq_length=8
seq_position=4

<region>
hivel=25
key=D3
lovel=0
offset=865
sample=Snare_SnareOn_Sticks_Hits_P_D3_RR4.opus
</region>

<region>
hivel=50
key=D3
lovel=26
offset=765
sample=Snare_SnareOn_Sticks_Hits_MP_D3_RR4.opus
</region>

<region>
hivel=75
key=D3
lovel=51
offset=711
sample=Snare_SnareOn_Sticks_Hits_MF_D3_RR4.opus
</region>

<region>
hivel=127
key=D3
lovel=101
offset=621
sample=Snare_SnareOn_Sticks_Hits_FF_D3_RR4.opus
</region>

<region>
hivel=100
key=D3
lovel=76
offset=621
sample=Snare_SnareOn_Sticks_Hits_F_D3_RR4.opus
</region>

<region>
hivel=25
key=D#3
lovel=0
offset=865
sample=Snare_SnareOn_Sticks_Halfway_Hits_P_D3_RR4.opus
</region>

<region>
hivel=50
key=D#3
lovel=26
offset=864
sample=Snare_SnareOn_Sticks_Halfway_Hits_MP_D3_RR4.opus
</region>

<region>
hivel=75
key=D#3
lovel=51
offset=865
sample=Snare_SnareOn_Sticks_Halfway_Hits_MF_D3_RR4.opus
</region>

<region>
hivel=127
key=D#3
lovel=101
offset=634
sample=Snare_SnareOn_Sticks_Halfway_Hits_FF_D3_RR4.opus
</region>

<region>
hivel=100
key=D#3
lovel=76
offset=700
sample=Snare_SnareOn_Sticks_Halfway_Hits_F_D3_RR4.opus
</region>

<region>
hivel=25
key=E3
lovel=0
offset=5196
sample=Snare_SnareOn_Sticks_Edge_Hits_P_D3_RR4.opus
</region>

<region>
hivel=50
key=E3
lovel=26
offset=864
sample=Snare_SnareOn_Sticks_Edge_Hits_MP_D3_RR4.opus
</region>

<region>
hivel=127
key=E3
lovel=101
offset=719
sample=Snare_SnareOn_Sticks_Edge_Hits_FF_D3_RR4.opus
</region>

<region>
hivel=100
key=E3
lovel=76
offset=720
sample=Snare_SnareOn_Sticks_Edge_Hits_F_D3_RR4.opus
</region>

<region>
hivel=75
key=E3
lovel=51
offset=773
sample=Snare_SnareOn_Sticks_Edge_Hits_MF_D3_RR8.opus
</region>
</group>

<group>
color=red
group_label=Main_Hits_RR5
seq_length=8
seq_position=5

<region>
hivel=25
key=D3
lovel=0
offset=864
sample=Snare_SnareOn_Sticks_Hits_P_D3_RR5.opus
</region>

<region>
hivel=50
key=D3
lovel=26
offset=864
sample=Snare_SnareOn_Sticks_Hits_MP_D3_RR5.opus
</region>

<region>
hivel=75
key=D3
lovel=51
offset=725
sample=Snare_SnareOn_Sticks_Hits_MF_D3_RR5.opus
</region>

<region>
hivel=127
key=D3
lovel=101
offset=704
sample=Snare_SnareOn_Sticks_Hits_FF_D3_RR5.opus
</region>

<region>
hivel=100
key=D3
lovel=76
offset=718
sample=Snare_SnareOn_Sticks_Hits_F_D3_RR5.opus
</region>

<region>
hivel=25
key=D#3
lovel=0
offset=3420
sample=Snare_SnareOn_Sticks_Halfway_Hits_P_D3_RR5.opus
</region>

<region>
hivel=50
key=D#3
lovel=26
offset=833
sample=Snare_SnareOn_Sticks_Halfway_Hits_MP_D3_RR5.opus
</region>

<region>
hivel=75
key=D#3
lovel=51
offset=768
sample=Snare_SnareOn_Sticks_Halfway_Hits_MF_D3_RR5.opus
</region>

<region>
hivel=127
key=D#3
lovel=101
offset=708
sample=Snare_SnareOn_Sticks_Halfway_Hits_FF_D3_RR5.opus
</region>

<region>
hivel=100
key=D#3
lovel=76
offset=594
sample=Snare_SnareOn_Sticks_Halfway_Hits_F_D3_RR5.opus
</region>

<region>
hivel=25
key=E3
lovel=0
offset=4433
sample=Snare_SnareOn_Sticks_Edge_Hits_P_D3_RR5.opus
</region>

<region>
hivel=50
key=E3
lovel=26
offset=864
sample=Snare_SnareOn_Sticks_Edge_Hits_MP_D3_RR5.opus
</region>

<region>
hivel=75
key=E3
lovel=51
offset=832
sample=Snare_SnareOn_Sticks_Edge_Hits_MF_D3_RR5.opus
</region>

<region>
hivel=127
key=E3
lovel=101
offset=627
sample=Snare_SnareOn_Sticks_Edge_Hits_FF_D3_RR5.opus
</region>

<region>
hivel=100
key=E3
lovel=76
offset=728
sample=Snare_SnareOn_Sticks_Edge_Hits_F_D3_RR5.opus
</region>
</group>

<group>
color=red
group_label=Main_Hits_RR6
seq_length=8
seq_position=6

<region>
hivel=25
key=D3
lovel=0
offset=864
sample=Snare_SnareOn_Sticks_Hits_P_D3_RR6.opus
</region>

<region>
hivel=50
key=D3
lovel=26
offset=864
sample=Snare_SnareOn_Sticks_Hits_MP_D3_RR6.opus
</region>

<region>
hivel=75
key=D3
lovel=51
offset=746
sample=Snare_SnareOn_Sticks_Hits_MF_D3_RR6.opus
</region>

<region>
hivel=127
key=D3
lovel=101
offset=640
sample=Snare_SnareOn_Sticks_Hits_FF_D3_RR6.opus
</region>

<region>
hivel=100
key=D3
lovel=76
offset=718
sample=Snare_SnareOn_Sticks_Hits_F_D3_RR6.opus
</region>

<region>
hivel=25
key=D#3
lovel=0
offset=865
sample=Snare_SnareOn_Sticks_Halfway_Hits_P_D3_RR6.opus
</region>

<region>
hivel=50
key=D#3
lovel=26
offset=864
sample=Snare_SnareOn_Sticks_Halfway_Hits_MP_D3_RR6.opus
</region>

<region>
hivel=75
key=D#3
lovel=51
offset=735
sample=Snare_SnareOn_Sticks_Halfway_Hits_MF_D3_RR6.opus
</region>

<region>
hivel=127
key=D#3
lovel=101
offset=682
sample=Snare_SnareOn_Sticks_Halfway_Hits_FF_D3_RR6.opus
</region>

<region>
hivel=100
key=D#3
lovel=76
offset=633
sample=Snare_SnareOn_Sticks_Halfway_Hits_F_D3_RR6.opus
</region>

<region>
hivel=25
key=E3
lovel=0
offset=4273
sample=Snare_SnareOn_Sticks_Edge_Hits_P_D3_RR6.opus
</region>

<region>
hivel=50
key=E3
lovel=26
offset=865
sample=Snare_SnareOn_Sticks_Edge_Hits_MP_D3_RR6.opus
</region>

<region>
hivel=75
key=E3
lovel=51
offset=839
sample=Snare_SnareOn_Sticks_Edge_Hits_MF_D3_RR6.opus
</region>

<region>
hivel=127
key=E3
lovel=101
offset=678
sample=Snare_SnareOn_Sticks_Edge_Hits_FF_D3_RR6.opus
</region>

<region>
hivel=100
key=E3
lovel=76
offset=725
sample=Snare_SnareOn_Sticks_Edge_Hits_F_D3_RR6.opus
</region>
</group>

<group>
color=red
group_label=Main_Hits_RR7
seq_length=8
seq_position=7

<region>
hivel=25
key=D3
lovel=0
offset=864
sample=Snare_SnareOn_Sticks_Hits_P_D3_RR7.opus
</region>

<region>
hivel=50
key=D3
lovel=26
offset=744
sample=Snare_SnareOn_Sticks_Hits_MP_D3_RR7.opus
</region>

<region>
hivel=75
key=D3
lovel=51
offset=774
sample=Snare_SnareOn_Sticks_Hits_MF_D3_RR7.opus
</region>

<region>
hivel=127
key=D3
lovel=101
offset=620
sample=Snare_SnareOn_Sticks_Hits_FF_D3_RR7.opus
</region>

<region>
hivel=100
key=D3
lovel=76
offset=736
sample=Snare_SnareOn_Sticks_Hits_F_D3_RR7.opus
</region>

<region>
hivel=25
key=D#3
lovel=0
offset=865
sample=Snare_SnareOn_Sticks_Halfway_Hits_P_D3_RR7.opus
</region>

<region>
hivel=50
key=D#3
lovel=26
offset=864
sample=Snare_SnareOn_Sticks_Halfway_Hits_MP_D3_RR7.opus
</region>

<region>
hivel=75
key=D#3
lovel=51
offset=839
sample=Snare_SnareOn_Sticks_Halfway_Hits_MF_D3_RR7.opus
</region>

<region>
hivel=127
key=D#3
lovel=101
offset=596
sample=Snare_SnareOn_Sticks_Halfway_Hits_FF_D3_RR7.opus
</region>

<region>
hivel=100
key=D#3
lovel=76
offset=710
sample=Snare_SnareOn_Sticks_Halfway_Hits_F_D3_RR7.opus
</region>

<region>
hivel=25
key=E3
lovel=0
offset=5041
sample=Snare_SnareOn_Sticks_Edge_Hits_P_D3_RR7.opus
</region>

<region>
hivel=50
key=E3
lovel=26
offset=864
sample=Snare_SnareOn_Sticks_Edge_Hits_MP_D3_RR7.opus
</region>

<region>
hivel=75
key=E3
lovel=51
offset=762
sample=Snare_SnareOn_Sticks_Edge_Hits_MF_D3_RR7.opus
</region>

<region>
hivel=127
key=E3
lovel=101
offset=620
sample=Snare_SnareOn_Sticks_Edge_Hits_FF_D3_RR7.opus
</region>

<region>
hivel=100
key=E3
lovel=76
offset=712
sample=Snare_SnareOn_Sticks_Edge_Hits_F_D3_RR7.opus
</region>
</group>

<group>
color=red
group_label=Main_Hits_RR8
seq_length=8
seq_position=8

<region>
hivel=25
key=D3
lovel=0
offset=865
sample=Snare_SnareOn_Sticks_Hits_P_D3_RR8.opus
</region>

<region>
hivel=50
key=D3
lovel=26
offset=810
sample=Snare_SnareOn_Sticks_Hits_MP_D3_RR8.opus
</region>

<region>
hivel=75
key=D3
lovel=51
offset=743
sample=Snare_SnareOn_Sticks_Hits_MF_D3_RR8.opus
</region>

<region>
hivel=127
key=D3
lovel=101
offset=703
sample=Snare_SnareOn_Sticks_Hits_FF_D3_RR8.opus
</region>

<region>
hivel=100
key=D3
lovel=76
offset=696
sample=Snare_SnareOn_Sticks_Hits_F_D3_RR8.opus
</region>

<region>
hivel=25
key=D#3
lovel=0
offset=1638
sample=Snare_SnareOn_Sticks_Halfway_Hits_P_D3_RR8.opus
</region>

<region>
hivel=50
key=D#3
lovel=26
offset=864
sample=Snare_SnareOn_Sticks_Halfway_Hits_MP_D3_RR8.opus
</region>

<region>
hivel=75
key=D#3
lovel=51
offset=762
sample=Snare_SnareOn_Sticks_Halfway_Hits_MF_D3_RR8.opus
</region>

<region>
hivel=127
key=D#3
lovel=101
offset=591
sample=Snare_SnareOn_Sticks_Halfway_Hits_FF_D3_RR8.opus
</region>

<region>
hivel=100
key=D#3
lovel=76
offset=722
sample=Snare_SnareOn_Sticks_Halfway_Hits_F_D3_RR8.opus
</region>

<region>
hivel=25
key=E3
lovel=0
offset=5503
sample=Snare_SnareOn_Sticks_Edge_Hits_P_D3_RR8.opus
</region>

<region>
hivel=50
key=E3
lovel=26
offset=864
sample=Snare_SnareOn_Sticks_Edge_Hits_MP_D3_RR8.opus
</region>

<region>
hivel=75
key=E3
lovel=51
offset=773
sample=Snare_SnareOn_Sticks_Edge_Hits_MF_D3_RR8.opus
</region>

<region>
hivel=127
key=E3
lovel=101
offset=714
sample=Snare_SnareOn_Sticks_Edge_Hits_FF_D3_RR8.opus
</region>

<region>
hivel=100
key=E3
lovel=76
offset=716
sample=Snare_SnareOn_Sticks_Edge_Hits_F_D3_RR8.opus
</region>
</group>

<group>
color=green
group_label=Alt_Hits_RR1
seq_length=4
seq_position=1

<region>
hivel=25
key=D4
lovel=0
offset=870
sample=Snare_SnareOn_Sticks_Rim_Hit_P_D3_RR1.opus
</region>

<region>
hivel=50
key=D4
lovel=26
offset=870
sample=Snare_SnareOn_Sticks_Rim_Hit_MP_D3_RR1.opus
</region>

<region>
hivel=75
key=D4
lovel=51
offset=869
sample=Snare_SnareOn_Sticks_Rim_Hit_MF_D3_RR1.opus
</region>

<region>
hivel=127
key=D4
lovel=101
offset=755
sample=Snare_SnareOn_Sticks_Rim_Hit_FF_D3_RR1.opus
</region>

<region>
hivel=25
key=D#4
lovel=0
offset=881
sample=Snare_SnareOn_Sticks_Shell_Hit_P_D3_RR1.opus
</region>

<region>
hivel=50
key=D#4
lovel=26
offset=874
sample=Snare_SnareOn_Sticks_Shell_Hit_MP_D3_RR1.opus
</region>

<region>
hivel=75
key=D#4
lovel=51
offset=787
sample=Snare_SnareOn_Sticks_Shell_Hit_MF_D3_RR1.opus
</region>

<region>
hivel=127
key=D#4
lovel=76
offset=718
sample=Snare_SnareOn_Sticks_Shell_Hit_FF_D3_RR1.opus
</region>

<region>
hivel=100
key=D4
lovel=76
offset=721
sample=Snare_SnareOn_Sticks_Shell_Hit_F_D3_RR1.opus
</region>

<region>
hivel=25
key=E4
lovel=0
offset=865
sample=Snare_SnareOn_Sticks_Buzz_Stroke_P_D3_RR1.opus
</region>

<region>
hivel=50
key=E4
lovel=26
offset=864
sample=Snare_SnareOn_Sticks_Buzz_Stroke_MP_D3_RR1.opus
</region>

<region>
hivel=75
key=E4
lovel=51
offset=853
sample=Snare_SnareOn_Sticks_Buzz_Stroke_MF_D3_RR1.opus
</region>

<region>
hivel=127
key=E4
lovel=101
offset=621
sample=Snare_SnareOn_Sticks_Buzz_Stroke_FF_D3_RR1.opus
</region>

<region>
hivel=100
key=E4
lovel=76
offset=714
sample=Snare_SnareOn_Sticks_Buzz_Stroke_F_D3_RR1.opus
</region>

<region>
hivel=25
key=F4
lovel=0
offset=865
sample=Snare_SnareOn_Sticks_Dry_Buzz_Stroke_P_D3_RR1.opus
</region>

<region>
hivel=50
key=F4
lovel=26
offset=864
sample=Snare_SnareOn_Sticks_Dry_Buzz_Stroke_MP_D3_RR1.opus
</region>

<region>
hivel=75
key=F4
lovel=51
offset=787
sample=Snare_SnareOn_Sticks_Dry_Buzz_Stroke_MF_D3_RR1.opus
</region>

<region>
hivel=127
key=F4
lovel=101
offset=738
sample=Snare_SnareOn_Sticks_Dry_Buzz_Stroke_FF_D3_RR1.opus
</region>

<region>
hivel=100
key=F4
lovel=76
offset=726
sample=Snare_SnareOn_Sticks_Dry_Buzz_Stroke_F_D3_RR1.opus
</region>

<region>
hivel=25
key=F#4
lovel=0
offset=6346
sample=Snare_SnareOn_Sticks_Edge_Buzz_Stroke_P_D3_RR1.opus
</region>

<region>
hivel=50
key=F#4
lovel=26
offset=864
sample=Snare_SnareOn_Sticks_Edge_Buzz_Stroke_MP_D3_RR1.opus
</region>

<region>
hivel=75
key=F#4
lovel=51
offset=814
sample=Snare_SnareOn_Sticks_Edge_Buzz_Stroke_MF_D3_RR1.opus
</region>

<region>
hivel=127
key=F#4
lovel=101
offset=747
sample=Snare_SnareOn_Sticks_Edge_Buzz_Stroke_FF_D3_RR1.opus
</region>

<region>
hivel=100
key=F#4
lovel=76
offset=783
sample=Snare_SnareOn_Sticks_Edge_Buzz_Stroke_F_D3_RR1.opus
</region>

<region>
hivel=25
key=G4
lovel=0
offset=6095
sample=Snare_SnareOn_Sticks_Edge_Dry_Buzz_Stroke_P_D3_RR1.opus
</region>

<region>
hivel=50
key=G4
lovel=26
offset=864
sample=Snare_SnareOn_Sticks_Edge_Dry_Buzz_Stroke_MP_D3_RR1.opus
</region>

<region>
hivel=75
key=G4
lovel=51
offset=864
sample=Snare_SnareOn_Sticks_Edge_Dry_Buzz_Stroke_MF_D3_RR1.opus
</region>

<region>
hivel=127
key=G4
lovel=101
offset=721
sample=Snare_SnareOn_Sticks_Edge_Dry_Buzz_Stroke_FF_D3_RR1.opus
</region>

<region>
hivel=100
key=G4
lovel=76
offset=737
sample=Snare_SnareOn_Sticks_Edge_Dry_Buzz_Stroke_F_D3_RR1.opus
</region>

<region>
hivel=25
key=G#4
lovel=0
offset=3737
sample=Snare_SnareOn_Sticks_Halfway_Buzz_Stroke_P_D3_RR1.opus
</region>

<region>
hivel=50
key=G#4
lovel=26
offset=865
sample=Snare_SnareOn_Sticks_Halfway_Buzz_Stroke_MP_D3_RR1.opus
</region>

<region>
hivel=75
key=G#4
lovel=51
offset=864
sample=Snare_SnareOn_Sticks_Halfway_Buzz_Stroke_MF_D3_RR1.opus
</region>

<region>
hivel=127
key=G#4
lovel=101
offset=642
sample=Snare_SnareOn_Sticks_Halfway_Buzz_Stroke_FF_D3_RR1.opus
</region>

<region>
hivel=100
key=G#4
lovel=76
offset=760
sample=Snare_SnareOn_Sticks_Halfway_Buzz_Stroke_F_D3_RR1.opus
</region>

<region>
hivel=25
key=A4
lovel=0
offset=4146
sample=Snare_SnareOn_Sticks_Halfway_Dry_Buzz_Stroke_P_D3_RR1.opus
</region>

<region>
hivel=50
key=A4
lovel=26
offset=864
sample=Snare_SnareOn_Sticks_Halfway_Dry_Buzz_Stroke_MP_D3_RR1.opus
</region>

<region>
hivel=75
key=A4
lovel=51
offset=864
sample=Snare_SnareOn_Sticks_Halfway_Dry_Buzz_Stroke_MF_D3_RR1.opus
</region>

<region>
hivel=127
key=A4
lovel=101
offset=697
sample=Snare_SnareOn_Sticks_Halfway_Dry_Buzz_Stroke_FF_D3_RR1.opus
</region>

<region>
hivel=100
key=A4
lovel=76
offset=712
sample=Snare_SnareOn_Sticks_Halfway_Dry_Buzz_Stroke_F_D3_RR1.opus
</region>

<region>
hivel=25
key=D5
lovel=0
offset=865
sample=Snare_SnareOn_Sticks_Stick_Shot_P_D3_RR1.opus
</region>

<region>
hivel=50
key=D5
lovel=26
offset=778
sample=Snare_SnareOn_Sticks_Stick_Shot_MP_D3_RR1.opus
</region>

<region>
hivel=75
key=D5
lovel=51
offset=756
sample=Snare_SnareOn_Sticks_Stick_Shot_MF_D3_RR1.opus
</region>

<region>
hivel=127
key=D5
lovel=101
offset=736
sample=Snare_SnareOn_Sticks_Stick_Shot_FF_D3_RR1.opus
</region>

<region>
hivel=100
key=D5
lovel=76
offset=738
sample=Snare_SnareOn_Sticks_Stick_Shot_F_D3_RR1.opus
</region>

<region>
hivel=25
key=D#5
lovel=0
offset=1615
sample=Snare_SnareOn_Sticks_Rim_Knock_P_D3_RR1.opus
</region>

<region>
hivel=50
key=D#5
lovel=26
offset=3227
sample=Snare_SnareOn_Sticks_Rim_Knock_MP_D3_RR1.opus
</region>

<region>
hivel=75
key=D#5
lovel=51
offset=3856
sample=Snare_SnareOn_Sticks_Rim_Knock_MF_D3_RR1.opus
</region>

<region>
hivel=127
key=D#5
lovel=101
offset=2218
sample=Snare_SnareOn_Sticks_Rim_Knock_FF_D3_RR1.opus
</region>

<region>
hivel=100
key=D#5
lovel=76
offset=2111
sample=Snare_SnareOn_Sticks_Rim_Knock_F_D3_RR1.opus
</region>

<region>
hivel=25
key=E5
lovel=0
offset=757
sample=Snare_SnareOn_Sticks_Ping_Shot_P_D3_RR1.opus
</region>

<region>
hivel=50
key=E5
lovel=26
offset=738
sample=Snare_SnareOn_Sticks_Ping_Shot_MP_D3_RR1.opus
</region>

<region>
hivel=75
key=E5
lovel=51
offset=711
sample=Snare_SnareOn_Sticks_Ping_Shot_MF_D3_RR1.opus
</region>

<region>
hivel=127
key=E5
lovel=101
offset=705
sample=Snare_SnareOn_Sticks_Ping_Shot_FF_D3_RR1.opus
</region>

<region>
hivel=100
key=E5
lovel=76
offset=697
sample=Snare_SnareOn_Sticks_Ping_Shot_F_D3_RR1.opus
</region>

<region>
hivel=25
key=F5
lovel=0
offset=746
sample=Snare_SnareOn_Sticks_Shoulder_Shot_P_D3_RR1.opus
</region>

<region>
hivel=50
key=F5
lovel=26
offset=710
sample=Snare_SnareOn_Sticks_Shoulder_Shot_MP_D3_RR1.opus
</region>

<region>
hivel=75
key=F5
lovel=51
offset=709
sample=Snare_SnareOn_Sticks_Shoulder_Shot_MF_D3_RR1.opus
</region>

<region>
hivel=127
key=F5
lovel=101
offset=694
sample=Snare_SnareOn_Sticks_Shoulder_Shot_FF_D3_RR1.opus
</region>

<region>
hivel=100
key=F5
lovel=76
offset=702
sample=Snare_SnareOn_Sticks_Shoulder_Shot_F_D3_RR1.opus
</region>

<region>
hivel=25
key=F#5
lovel=0
offset=739
sample=Snare_SnareOn_Sticks_Gok_Shot_P_D3_RR1.opus
</region>

<region>
hivel=50
key=F#5
lovel=26
offset=740
sample=Snare_SnareOn_Sticks_Gok_Shot_MP_D3_RR1.opus
</region>

<region>
hivel=75
key=F#5
lovel=51
offset=712
sample=Snare_SnareOn_Sticks_Gok_Shot_MF_D3_RR1.opus
</region>

<region>
hivel=127
key=F#5
lovel=101
offset=702
sample=Snare_SnareOn_Sticks_Gok_Shot_FF_D3_RR1.opus
</region>

<region>
hivel=100
key=F#5
lovel=76
offset=720
sample=Snare_SnareOn_Sticks_Gok_Shot_F_D3_RR1.opus
</region>

<region>
hivel=25
key=D6
lovel=0
offset=3725
sample=Snare_SnareOn_Sticks_Backstick_P_D3_RR1.opus
</region>

<region>
hivel=50
key=D6
lovel=26
offset=865
sample=Snare_SnareOn_Sticks_Backstick_MP_D3_RR1.opus
</region>

<region>
hivel=75
key=D6
lovel=51
offset=777
sample=Snare_SnareOn_Sticks_Backstick_MF_D3_RR1.opus
</region>

<region>
hivel=127
key=D6
lovel=101
offset=864
sample=Snare_SnareOn_Sticks_Backstick_FF_D3_RR1.opus
</region>

<region>
hivel=100
key=D6
lovel=76
offset=862
sample=Snare_SnareOn_Sticks_Backstick_F_D3_RR1.opus
</region>
</group>

<group>
color=green
group_label=Alt_Hits_RR2
seq_length=4
seq_position=2

<region>
hivel=25
key=D4
lovel=0
offset=869
sample=Snare_SnareOn_Sticks_Rim_Hit_P_D3_RR2.opus
</region>

<region>
hivel=50
key=D4
lovel=26
offset=869
sample=Snare_SnareOn_Sticks_Rim_Hit_MP_D3_RR2.opus
</region>

<region>
hivel=75
key=D4
lovel=51
offset=799
sample=Snare_SnareOn_Sticks_Rim_Hit_MF_D3_RR2.opus
</region>

<region>
hivel=127
key=D4
lovel=101
offset=734
sample=Snare_SnareOn_Sticks_Rim_Hit_FF_D3_RR2.opus
</region>

<region>
hivel=100
key=D4
lovel=76
offset=724
sample=Snare_SnareOn_Sticks_Rim_Hit_F_D3_RR2.opus
</region>

<region>
hivel=25
key=D#4
lovel=0
offset=865
sample=Snare_SnareOn_Sticks_Shell_Hit_P_D3_RR2.opus
</region>

<region>
hivel=50
key=D#4
lovel=26
offset=852
sample=Snare_SnareOn_Sticks_Shell_Hit_MP_D3_RR2.opus
</region>

<region>
hivel=75
key=D#4
lovel=51
offset=739
sample=Snare_SnareOn_Sticks_Shell_Hit_MF_D3_RR2.opus
</region>

<region>
hivel=127
key=D#4
lovel=101
offset=711
sample=Snare_SnareOn_Sticks_Shell_Hit_FF_D3_RR2.opus
</region>

<region>
hivel=100
key=D#4
lovel=76
offset=749
sample=Snare_SnareOn_Sticks_Shell_Hit_F_D3_RR2.opus
</region>

<region>
hivel=25
key=E4
lovel=0
offset=865
sample=Snare_SnareOn_Sticks_Buzz_Stroke_P_D3_RR2.opus
</region>

<region>
hivel=50
key=E4
lovel=26
offset=864
sample=Snare_SnareOn_Sticks_Buzz_Stroke_MP_D3_RR2.opus
</region>

<region>
hivel=75
key=E4
lovel=51
offset=789
sample=Snare_SnareOn_Sticks_Buzz_Stroke_MF_D3_RR2.opus
</region>

<region>
hivel=127
key=E4
lovel=101
offset=718
sample=Snare_SnareOn_Sticks_Buzz_Stroke_FF_D3_RR2.opus
</region>

<region>
hivel=100
key=E4
lovel=76
offset=724
sample=Snare_SnareOn_Sticks_Buzz_Stroke_F_D3_RR2.opus
</region>

<region>
hivel=25
key=F4
lovel=0
offset=864
sample=Snare_SnareOn_Sticks_Dry_Buzz_Stroke_P_D3_RR2.opus
</region>

<region>
hivel=50
key=F4
lovel=26
offset=850
sample=Snare_SnareOn_Sticks_Dry_Buzz_Stroke_MP_D3_RR2.opus
</region>

<region>
hivel=75
key=F4
lovel=51
offset=864
sample=Snare_SnareOn_Sticks_Dry_Buzz_Stroke_MF_D3_RR2.opus
</region>

<region>
hivel=127
key=F4
lovel=101
offset=725
sample=Snare_SnareOn_Sticks_Dry_Buzz_Stroke_FF_D3_RR2.opus
</region>

<region>
hivel=100
key=F4
lovel=76
offset=752
sample=Snare_SnareOn_Sticks_Dry_Buzz_Stroke_F_D3_RR2.opus
</region>

<region>
hivel=25
key=F#4
lovel=0
offset=6910
sample=Snare_SnareOn_Sticks_Edge_Buzz_Stroke_P_D3_RR2.opus
</region>

<region>
hivel=50
key=F#4
lovel=26
offset=864
sample=Snare_SnareOn_Sticks_Edge_Buzz_Stroke_MP_D3_RR2.opus
</region>

<region>
hivel=75
key=F#4
lovel=51
offset=797
sample=Snare_SnareOn_Sticks_Edge_Buzz_Stroke_MF_D3_RR2.opus
</region>

<region>
hivel=127
key=F#4
lovel=101
offset=724
sample=Snare_SnareOn_Sticks_Edge_Buzz_Stroke_FF_D3_RR2.opus
</region>

<region>
hivel=100
key=F#4
lovel=76
offset=728
sample=Snare_SnareOn_Sticks_Edge_Buzz_Stroke_F_D3_RR2.opus
</region>

<region>
hivel=25
key=G4
lovel=0
offset=6330
sample=Snare_SnareOn_Sticks_Edge_Dry_Buzz_Stroke_P_D3_RR2.opus
</region>

<region>
hivel=50
key=G4
lovel=26
offset=864
sample=Snare_SnareOn_Sticks_Edge_Dry_Buzz_Stroke_MP_D3_RR2.opus
</region>

<region>
hivel=75
key=G4
lovel=51
offset=865
sample=Snare_SnareOn_Sticks_Edge_Dry_Buzz_Stroke_MF_D3_RR2.opus
</region>

<region>
hivel=127
key=G4
lovel=101
offset=711
sample=Snare_SnareOn_Sticks_Edge_Dry_Buzz_Stroke_FF_D3_RR2.opus
</region>

<region>
hivel=100
key=G4
lovel=76
offset=752
sample=Snare_SnareOn_Sticks_Edge_Dry_Buzz_Stroke_F_D3_RR2.opus
</region>

<region>
hivel=25
key=G#4
lovel=0
offset=865
sample=Snare_SnareOn_Sticks_Halfway_Buzz_Stroke_P_D3_RR2.opus
</region>

<region>
hivel=50
key=G#4
lovel=26
offset=865
sample=Snare_SnareOn_Sticks_Halfway_Buzz_Stroke_MP_D3_RR2.opus
</region>

<region>
hivel=75
key=G#4
lovel=51
offset=793
sample=Snare_SnareOn_Sticks_Halfway_Buzz_Stroke_MF_D3_RR2.opus
</region>

<region>
hivel=127
key=G#4
lovel=101
offset=709
sample=Snare_SnareOn_Sticks_Halfway_Buzz_Stroke_FF_D3_RR2.opus
</region>

<region>
hivel=100
key=G#4
lovel=76
offset=738
sample=Snare_SnareOn_Sticks_Halfway_Buzz_Stroke_F_D3_RR2.opus
</region>

<region>
hivel=25
key=A4
lovel=0
offset=2210
sample=Snare_SnareOn_Sticks_Halfway_Dry_Buzz_Stroke_P_D3_RR2.opus
</region>

<region>
hivel=50
key=A4
lovel=26
offset=864
sample=Snare_SnareOn_Sticks_Halfway_Dry_Buzz_Stroke_MP_D3_RR2.opus
</region>

<region>
hivel=75
key=A4
lovel=51
offset=864
sample=Snare_SnareOn_Sticks_Halfway_Dry_Buzz_Stroke_MF_D3_RR2.opus
</region>

<region>
hivel=127
key=A4
lovel=101
offset=706
sample=Snare_SnareOn_Sticks_Halfway_Dry_Buzz_Stroke_FF_D3_RR2.opus
</region>

<region>
hivel=100
key=A4
lovel=76
offset=644
sample=Snare_SnareOn_Sticks_Halfway_Dry_Buzz_Stroke_F_D3_RR2.opus
</region>

<region>
hivel=25
key=D5
lovel=0
offset=865
sample=Snare_SnareOn_Sticks_Stick_Shot_P_D3_RR2.opus
</region>

<region>
hivel=50
key=D5
lovel=26
offset=864
sample=Snare_SnareOn_Sticks_Stick_Shot_MP_D3_RR2.opus
</region>

<region>
hivel=75
key=D5
lovel=51
offset=774
sample=Snare_SnareOn_Sticks_Stick_Shot_MF_D3_RR2.opus
</region>

<region>
hivel=127
key=D5
lovel=101
offset=705
sample=Snare_SnareOn_Sticks_Stick_Shot_FF_D3_RR2.opus
</region>

<region>
hivel=100
key=D5
lovel=76
offset=727
sample=Snare_SnareOn_Sticks_Stick_Shot_F_D3_RR2.opus
</region>

<region>
hivel=25
key=D#5
lovel=0
offset=898
sample=Snare_SnareOn_Sticks_Rim_Knock_P_D3_RR2.opus
</region>

<region>
hivel=50
key=D#5
lovel=26
offset=863
sample=Snare_SnareOn_Sticks_Rim_Knock_MP_D3_RR2.opus
</region>

<region>
hivel=75
key=D#5
lovel=51
offset=767
sample=Snare_SnareOn_Sticks_Rim_Knock_MF_D3_RR2.opus
</region>

<region>
hivel=127
key=D#5
lovel=101
offset=824
sample=Snare_SnareOn_Sticks_Rim_Knock_FF_D3_RR2.opus
</region>

<region>
hivel=100
key=D#5
lovel=76
offset=834
sample=Snare_SnareOn_Sticks_Rim_Knock_F_D3_RR2.opus
</region>

<region>
hivel=25
key=E5
lovel=0
offset=756
sample=Snare_SnareOn_Sticks_Ping_Shot_P_D3_RR2.opus
</region>

<region>
hivel=50
key=E5
lovel=26
offset=727
sample=Snare_SnareOn_Sticks_Ping_Shot_MP_D3_RR2.opus
</region>

<region>
hivel=75
key=E5
lovel=51
offset=711
sample=Snare_SnareOn_Sticks_Ping_Shot_MF_D3_RR2.opus
</region>

<region>
hivel=127
key=E5
lovel=101
offset=706
sample=Snare_SnareOn_Sticks_Ping_Shot_FF_D3_RR2.opus
</region>

<region>
hivel=100
key=E5
lovel=76
offset=585
sample=Snare_SnareOn_Sticks_Ping_Shot_F_D3_RR2.opus
</region>

<region>
hivel=25
key=F5
lovel=0
offset=845
sample=Snare_SnareOn_Sticks_Shoulder_Shot_P_D3_RR2.opus
</region>

<region>
hivel=50
key=F5
lovel=26
offset=604
sample=Snare_SnareOn_Sticks_Shoulder_Shot_MP_D3_RR2.opus
</region>

<region>
hivel=75
key=F5
lovel=51
offset=719
sample=Snare_SnareOn_Sticks_Shoulder_Shot_MF_D3_RR2.opus
</region>

<region>
hivel=127
key=F5
lovel=101
offset=710
sample=Snare_SnareOn_Sticks_Shoulder_Shot_FF_D3_RR2.opus
</region>

<region>
hivel=100
key=F5
lovel=76
offset=698
sample=Snare_SnareOn_Sticks_Shoulder_Shot_F_D3_RR2.opus
</region>

<region>
hivel=25
key=F#5
lovel=0
offset=743
sample=Snare_SnareOn_Sticks_Gok_Shot_P_D3_RR2.opus
</region>

<region>
hivel=50
key=F#5
lovel=26
offset=647
sample=Snare_SnareOn_Sticks_Gok_Shot_MP_D3_RR2.opus
</region>

<region>
hivel=75
key=F#5
lovel=51
offset=718
sample=Snare_SnareOn_Sticks_Gok_Shot_MF_D3_RR2.opus
</region>

<region>
hivel=127
key=F#5
lovel=101
offset=704
sample=Snare_SnareOn_Sticks_Gok_Shot_FF_D3_RR2.opus
</region>

<region>
hivel=100
key=F#5
lovel=76
offset=712
sample=Snare_SnareOn_Sticks_Gok_Shot_F_D3_RR2.opus
</region>

<region>
hivel=25
key=D6
lovel=0
offset=3708
sample=Snare_SnareOn_Sticks_Backstick_P_D3_RR2.opus
</region>

<region>
hivel=50
key=D6
lovel=26
offset=864
sample=Snare_SnareOn_Sticks_Backstick_MP_D3_RR2.opus
</region>

<region>
hivel=75
key=D6
lovel=51
offset=865
sample=Snare_SnareOn_Sticks_Backstick_MF_D3_RR2.opus
</region>

<region>
hivel=127
key=D6
lovel=101
offset=800
sample=Snare_SnareOn_Sticks_Backstick_FF_D3_RR2.opus
</region>

<region>
hivel=100
key=D6
lovel=76
offset=864
sample=Snare_SnareOn_Sticks_Backstick_F_D3_RR2.opus
</region>
</group>

<group>
color=green
group_label=Alt_Hits_RR3
seq_length=4
seq_position=3

<region>
hivel=25
key=D4
lovel=0
offset=871
sample=Snare_SnareOn_Sticks_Rim_Hit_P_D3_RR3.opus
</region>

<region>
hivel=50
key=D4
lovel=26
offset=870
sample=Snare_SnareOn_Sticks_Rim_Hit_MP_D3_RR3.opus
</region>

<region>
hivel=75
key=D4
lovel=51
offset=798
sample=Snare_SnareOn_Sticks_Rim_Hit_MF_D3_RR3.opus
</region>

<region>
hivel=127
key=D4
lovel=101
offset=754
sample=Snare_SnareOn_Sticks_Rim_Hit_FF_D3_RR3.opus
</region>

<region>
hivel=100
key=D4
lovel=76
offset=757
sample=Snare_SnareOn_Sticks_Rim_Hit_F_D3_RR3.opus
</region>

<region>
hivel=25
key=D#4
lovel=0
offset=890
sample=Snare_SnareOn_Sticks_Shell_Hit_P_D3_RR3.opus
</region>

<region>
hivel=50
key=D#4
lovel=26
offset=881
sample=Snare_SnareOn_Sticks_Shell_Hit_MP_D3_RR3.opus
</region>

<region>
hivel=75
key=D#4
lovel=51
offset=803
sample=Snare_SnareOn_Sticks_Shell_Hit_MF_D3_RR3.opus
</region>

<region>
hivel=127
key=D#4
lovel=101
offset=711
sample=Snare_SnareOn_Sticks_Shell_Hit_FF_D3_RR3.opus
</region>

<region>
hivel=100
key=D#4
lovel=76
offset=652
sample=Snare_SnareOn_Sticks_Shell_Hit_F_D3_RR3.opus
</region>

<region>
hivel=25
key=E4
lovel=0
offset=865
sample=Snare_SnareOn_Sticks_Buzz_Stroke_P_D3_RR3.opus
</region>

<region>
hivel=50
key=E4
lovel=26
offset=864
sample=Snare_SnareOn_Sticks_Buzz_Stroke_MP_D3_RR3.opus
</region>

<region>
hivel=75
key=E4
lovel=51
offset=726
sample=Snare_SnareOn_Sticks_Buzz_Stroke_MF_D3_RR3.opus
</region>

<region>
hivel=127
key=E4
lovel=101
offset=587
sample=Snare_SnareOn_Sticks_Buzz_Stroke_FF_D3_RR3.opus
</region>

<region>
hivel=100
key=E4
lovel=76
offset=712
sample=Snare_SnareOn_Sticks_Buzz_Stroke_F_D3_RR3.opus
</region>

<region>
hivel=25
key=F4
lovel=0
offset=865
sample=Snare_SnareOn_Sticks_Dry_Buzz_Stroke_P_D3_RR3.opus
</region>

<region>
hivel=50
key=F4
lovel=26
offset=828
sample=Snare_SnareOn_Sticks_Dry_Buzz_Stroke_MP_D3_RR3.opus
</region>

<region>
hivel=75
key=F4
lovel=51
offset=768
sample=Snare_SnareOn_Sticks_Dry_Buzz_Stroke_MF_D3_RR3.opus
</region>

<region>
hivel=127
key=F4
lovel=101
offset=707
sample=Snare_SnareOn_Sticks_Dry_Buzz_Stroke_FF_D3_RR3.opus
</region>

<region>
hivel=100
key=F4
lovel=76
offset=698
sample=Snare_SnareOn_Sticks_Dry_Buzz_Stroke_F_D3_RR3.opus
</region>

<region>
hivel=25
key=F#4
lovel=0
offset=3562
sample=Snare_SnareOn_Sticks_Edge_Buzz_Stroke_P_D3_RR3.opus
</region>

<region>
hivel=50
key=F#4
lovel=26
offset=864
sample=Snare_SnareOn_Sticks_Edge_Buzz_Stroke_MP_D3_RR3.opus
</region>

<region>
hivel=75
key=F#4
lovel=51
offset=864
sample=Snare_SnareOn_Sticks_Edge_Buzz_Stroke_MF_D3_RR3.opus
</region>

<region>
hivel=127
key=F#4
lovel=101
offset=718
sample=Snare_SnareOn_Sticks_Edge_Buzz_Stroke_FF_D3_RR3.opus
</region>

<region>
hivel=100
key=F#4
lovel=76
offset=724
sample=Snare_SnareOn_Sticks_Edge_Buzz_Stroke_F_D3_RR3.opus
</region>

<region>
hivel=25
key=G4
lovel=0
offset=4511
sample=Snare_SnareOn_Sticks_Edge_Dry_Buzz_Stroke_P_D3_RR3.opus
</region>

<region>
hivel=50
key=G4
lovel=26
offset=864
sample=Snare_SnareOn_Sticks_Edge_Dry_Buzz_Stroke_MP_D3_RR3.opus
</region>

<region>
hivel=75
key=G4
lovel=51
offset=864
sample=Snare_SnareOn_Sticks_Edge_Dry_Buzz_Stroke_MF_D3_RR3.opus
</region>

<region>
hivel=127
key=G4
lovel=101
offset=634
sample=Snare_SnareOn_Sticks_Edge_Dry_Buzz_Stroke_FF_D3_RR3.opus
</region>

<region>
hivel=100
key=G4
lovel=76
offset=796
sample=Snare_SnareOn_Sticks_Edge_Dry_Buzz_Stroke_F_D3_RR3.opus
</region>

<region>
hivel=25
key=G#4
lovel=0
offset=865
sample=Snare_SnareOn_Sticks_Halfway_Buzz_Stroke_P_D3_RR3.opus
</region>

<region>
hivel=50
key=G#4
lovel=26
offset=864
sample=Snare_SnareOn_Sticks_Halfway_Buzz_Stroke_MP_D3_RR3.opus
</region>

<region>
hivel=75
key=G#4
lovel=51
offset=834
sample=Snare_SnareOn_Sticks_Halfway_Buzz_Stroke_MF_D3_RR3.opus
</region>

<region>
hivel=127
key=G#4
lovel=101
offset=697
sample=Snare_SnareOn_Sticks_Halfway_Buzz_Stroke_FF_D3_RR3.opus
</region>

<region>
hivel=100
key=G#4
lovel=76
offset=736
sample=Snare_SnareOn_Sticks_Halfway_Buzz_Stroke_F_D3_RR3.opus
</region>

<region>
hivel=25
key=A4
lovel=0
offset=4283
sample=Snare_SnareOn_Sticks_Halfway_Dry_Buzz_Stroke_P_D3_RR3.opus
</region>

<region>
hivel=50
key=A4
lovel=26
offset=864
sample=Snare_SnareOn_Sticks_Halfway_Dry_Buzz_Stroke_MP_D3_RR3.opus
</region>

<region>
hivel=75
key=A4
lovel=51
offset=864
sample=Snare_SnareOn_Sticks_Halfway_Dry_Buzz_Stroke_MF_D3_RR3.opus
</region>

<region>
hivel=127
key=A4
lovel=101
offset=662
sample=Snare_SnareOn_Sticks_Halfway_Dry_Buzz_Stroke_FF_D3_RR3.opus
</region>

<region>
hivel=100
key=A4
lovel=76
offset=743
sample=Snare_SnareOn_Sticks_Halfway_Dry_Buzz_Stroke_F_D3_RR3.opus
</region>

<region>
hivel=25
key=D5
lovel=0
offset=865
sample=Snare_SnareOn_Sticks_Stick_Shot_P_D3_RR3.opus
</region>

<region>
hivel=50
key=D5
lovel=26
offset=667
sample=Snare_SnareOn_Sticks_Stick_Shot_MP_D3_RR3.opus
</region>

<region>
hivel=75
key=D5
lovel=51
offset=756
sample=Snare_SnareOn_Sticks_Stick_Shot_MF_D3_RR3.opus
</region>

<region>
hivel=127
key=D5
lovel=101
offset=736
sample=Snare_SnareOn_Sticks_Stick_Shot_FF_D3_RR3.opus
</region>

<region>
hivel=100
key=D5
lovel=76
offset=691
sample=Snare_SnareOn_Sticks_Stick_Shot_F_D3_RR3.opus
</region>

<region>
hivel=25
key=D#5
lovel=0
offset=921
sample=Snare_SnareOn_Sticks_Rim_Knock_P_D3_RR3.opus
</region>

<region>
hivel=50
key=D#5
lovel=26
offset=763
sample=Snare_SnareOn_Sticks_Rim_Knock_MP_D3_RR3.opus
</region>

<region>
hivel=75
key=D#5
lovel=51
offset=738
sample=Snare_SnareOn_Sticks_Rim_Knock_MF_D3_RR3.opus
</region>

<region>
hivel=127
key=D#5
lovel=101
offset=633
sample=Snare_SnareOn_Sticks_Rim_Knock_FF_D3_RR3.opus
</region>

<region>
hivel=100
key=D#5
lovel=76
offset=836
sample=Snare_SnareOn_Sticks_Rim_Knock_F_D3_RR3.opus
</region>

<region>
hivel=25
key=E5
lovel=0
offset=755
sample=Snare_SnareOn_Sticks_Ping_Shot_P_D3_RR3.opus
</region>

<region>
hivel=50
key=E5
lovel=26
offset=736
sample=Snare_SnareOn_Sticks_Ping_Shot_MP_D3_RR3.opus
</region>

<region>
hivel=75
key=E5
lovel=51
offset=723
sample=Snare_SnareOn_Sticks_Ping_Shot_MF_D3_RR3.opus
</region>

<region>
hivel=127
key=E5
lovel=101
offset=703
sample=Snare_SnareOn_Sticks_Ping_Shot_FF_D3_RR3.opus
</region>

<region>
hivel=100
key=E5
lovel=76
offset=703
sample=Snare_SnareOn_Sticks_Ping_Shot_F_D3_RR3.opus
</region>

<region>
hivel=25
key=F5
lovel=0
offset=739
sample=Snare_SnareOn_Sticks_Shoulder_Shot_P_D3_RR3.opus
</region>

<region>
hivel=50
key=F5
lovel=26
offset=740
sample=Snare_SnareOn_Sticks_Shoulder_Shot_MP_D3_RR3.opus
</region>

<region>
hivel=75
key=F5
lovel=51
offset=740
sample=Snare_SnareOn_Sticks_Shoulder_Shot_MF_D3_RR3.opus
</region>

<region>
hivel=127
key=F5
lovel=101
offset=585
sample=Snare_SnareOn_Sticks_Shoulder_Shot_FF_D3_RR3.opus
</region>

<region>
hivel=100
key=F5
lovel=76
offset=702
sample=Snare_SnareOn_Sticks_Shoulder_Shot_F_D3_RR3.opus
</region>

<region>
hivel=25
key=F#5
lovel=0
offset=825
sample=Snare_SnareOn_Sticks_Gok_Shot_P_D3_RR3.opus
</region>

<region>
hivel=50
key=F#5
lovel=26
offset=741
sample=Snare_SnareOn_Sticks_Gok_Shot_MP_D3_RR3.opus
</region>

<region>
hivel=75
key=F#5
lovel=51
offset=718
sample=Snare_SnareOn_Sticks_Gok_Shot_MF_D3_RR3.opus
</region>

<region>
hivel=127
key=F#5
lovel=101
offset=595
sample=Snare_SnareOn_Sticks_Gok_Shot_FF_D3_RR3.opus
</region>

<region>
hivel=100
key=F#5
lovel=76
offset=695
sample=Snare_SnareOn_Sticks_Gok_Shot_F_D3_RR3.opus
</region>

<region>
hivel=25
key=D6
lovel=0
offset=3029
sample=Snare_SnareOn_Sticks_Backstick_P_D3_RR3.opus
</region>

<region>
hivel=50
key=D6
lovel=26
offset=864
sample=Snare_SnareOn_Sticks_Backstick_MP_D3_RR3.opus
</region>

<region>
hivel=75
key=D6
lovel=51
offset=864
sample=Snare_SnareOn_Sticks_Backstick_MF_D3_RR3.opus
</region>

<region>
hivel=127
key=D6
lovel=101
offset=864
sample=Snare_SnareOn_Sticks_Backstick_FF_D3_RR3.opus
</region>

<region>
hivel=100
key=D6
lovel=76
offset=864
sample=Snare_SnareOn_Sticks_Backstick_F_D3_RR3.opus
</region>
</group>

<group>
color=green
group_label=Alt_Hits_RR4
seq_length=4
seq_position=4

<region>
hivel=25
key=D4
lovel=0
offset=869
sample=Snare_SnareOn_Sticks_Rim_Hit_P_D3_RR4.opus
</region>

<region>
hivel=50
key=D4
lovel=26
offset=869
sample=Snare_SnareOn_Sticks_Rim_Hit_MP_D3_RR4.opus
</region>

<region>
hivel=75
key=D4
lovel=51
offset=736
sample=Snare_SnareOn_Sticks_Rim_Hit_MF_D3_RR4.opus
</region>

<region>
hivel=127
key=D4
lovel=101
offset=724
sample=Snare_SnareOn_Sticks_Rim_Hit_FF_D3_RR4.opus
</region>

<region>
hivel=100
key=D4
lovel=76
offset=744
sample=Snare_SnareOn_Sticks_Rim_Hit_F_D3_RR4.opus
</region>

<region>
hivel=25
key=D#4
lovel=0
offset=2914
sample=Snare_SnareOn_Sticks_Shell_Hit_P_D3_RR4.opus
</region>

<region>
hivel=50
key=D#4
lovel=26
offset=864
sample=Snare_SnareOn_Sticks_Shell_Hit_MP_D3_RR4.opus
</region>

<region>
hivel=75
key=D#4
lovel=51
offset=823
sample=Snare_SnareOn_Sticks_Shell_Hit_MF_D3_RR4.opus
</region>

<region>
hivel=127
key=D#4
lovel=101
offset=701
sample=Snare_SnareOn_Sticks_Shell_Hit_FF_D3_RR4.opus
</region>

<region>
hivel=100
key=D#4
lovel=76
offset=723
sample=Snare_SnareOn_Sticks_Shell_Hit_F_D3_RR4.opus
</region>

<region>
hivel=25
key=E4
lovel=0
offset=865
sample=Snare_SnareOn_Sticks_Buzz_Stroke_P_D3_RR4.opus
</region>

<region>
hivel=50
key=E4
lovel=26
offset=864
sample=Snare_SnareOn_Sticks_Buzz_Stroke_MP_D3_RR4.opus
</region>

<region>
hivel=75
key=E4
lovel=51
offset=779
sample=Snare_SnareOn_Sticks_Buzz_Stroke_MF_D3_RR4.opus
</region>

<region>
hivel=127
key=E4
lovel=101
offset=706
sample=Snare_SnareOn_Sticks_Buzz_Stroke_FF_D3_RR4.opus
</region>

<region>
hivel=100
key=E4
lovel=76
offset=713
sample=Snare_SnareOn_Sticks_Buzz_Stroke_F_D3_RR4.opus
</region>

<region>
hivel=25
key=F4
lovel=0
offset=865
sample=Snare_SnareOn_Sticks_Dry_Buzz_Stroke_P_D3_RR4.opus
</region>

<region>
hivel=50
key=F4
lovel=26
offset=757
sample=Snare_SnareOn_Sticks_Dry_Buzz_Stroke_MP_D3_RR4.opus
</region>

<region>
hivel=75
key=F4
lovel=51
offset=864
sample=Snare_SnareOn_Sticks_Dry_Buzz_Stroke_MF_D3_RR4.opus
</region>

<region>
hivel=127
key=F4
lovel=101
offset=741
sample=Snare_SnareOn_Sticks_Dry_Buzz_Stroke_FF_D3_RR4.opus
</region>

<region>
hivel=100
key=F4
lovel=76
offset=729
sample=Snare_SnareOn_Sticks_Dry_Buzz_Stroke_F_D3_RR4.opus
</region>

<region>
hivel=25
key=F#4
lovel=0
offset=5129
sample=Snare_SnareOn_Sticks_Edge_Buzz_Stroke_P_D3_RR4.opus
</region>

<region>
hivel=50
key=F#4
lovel=26
offset=864
sample=Snare_SnareOn_Sticks_Edge_Buzz_Stroke_MP_D3_RR4.opus
</region>

<region>
hivel=75
key=F#4
lovel=51
offset=864
sample=Snare_SnareOn_Sticks_Edge_Buzz_Stroke_MF_D3_RR4.opus
</region>

<region>
hivel=127
key=F#4
lovel=101
offset=714
sample=Snare_SnareOn_Sticks_Edge_Buzz_Stroke_FF_D3_RR4.opus
</region>

<region>
hivel=100
key=F#4
lovel=76
offset=745
sample=Snare_SnareOn_Sticks_Edge_Buzz_Stroke_F_D3_RR4.opus
</region>

<region>
hivel=25
key=G4
lovel=0
offset=4615
sample=Snare_SnareOn_Sticks_Edge_Dry_Buzz_Stroke_P_D3_RR4.opus
</region>

<region>
hivel=50
key=G4
lovel=26
offset=865
sample=Snare_SnareOn_Sticks_Edge_Dry_Buzz_Stroke_MP_D3_RR4.opus
</region>

<region>
hivel=75
key=G4
lovel=51
offset=864
sample=Snare_SnareOn_Sticks_Edge_Dry_Buzz_Stroke_MF_D3_RR4.opus
</region>

<region>
hivel=127
key=G4
lovel=101
offset=762
sample=Snare_SnareOn_Sticks_Edge_Dry_Buzz_Stroke_FF_D3_RR4.opus
</region>

<region>
hivel=100
key=G4
lovel=76
offset=742
sample=Snare_SnareOn_Sticks_Edge_Dry_Buzz_Stroke_F_D3_RR4.opus
</region>

<region>
hivel=25
key=G#4
lovel=0
offset=1849
sample=Snare_SnareOn_Sticks_Halfway_Buzz_Stroke_P_D3_RR4.opus
</region>

<region>
hivel=50
key=G#4
lovel=26
offset=864
sample=Snare_SnareOn_Sticks_Halfway_Buzz_Stroke_MP_D3_RR4.opus
</region>

<region>
hivel=75
key=G#4
lovel=51
offset=777
sample=Snare_SnareOn_Sticks_Halfway_Buzz_Stroke_MF_D3_RR4.opus
</region>

<region>
hivel=127
key=G#4
lovel=101
offset=707
sample=Snare_SnareOn_Sticks_Halfway_Buzz_Stroke_FF_D3_RR4.opus
</region>

<region>
hivel=100
key=G#4
lovel=76
offset=743
sample=Snare_SnareOn_Sticks_Halfway_Buzz_Stroke_F_D3_RR4.opus
</region>

<region>
hivel=25
key=A4
lovel=0
offset=4337
sample=Snare_SnareOn_Sticks_Halfway_Dry_Buzz_Stroke_P_D3_RR4.opus
</region>

<region>
hivel=50
key=A4
lovel=26
offset=864
sample=Snare_SnareOn_Sticks_Halfway_Dry_Buzz_Stroke_MP_D3_RR4.opus
</region>

<region>
hivel=75
key=A4
lovel=51
offset=864
sample=Snare_SnareOn_Sticks_Halfway_Dry_Buzz_Stroke_MF_D3_RR4.opus
</region>

<region>
hivel=127
key=A4
lovel=101
offset=706
sample=Snare_SnareOn_Sticks_Halfway_Dry_Buzz_Stroke_FF_D3_RR4.opus
</region>

<region>
hivel=100
key=A4
lovel=76
offset=738
sample=Snare_SnareOn_Sticks_Halfway_Dry_Buzz_Stroke_F_D3_RR4.opus
</region>

<region>
hivel=25
key=D5
lovel=0
offset=881
sample=Snare_SnareOn_Sticks_Stick_Shot_P_D3_RR4.opus
</region>

<region>
hivel=50
key=D5
lovel=26
offset=864
sample=Snare_SnareOn_Sticks_Stick_Shot_MP_D3_RR4.opus
</region>

<region>
hivel=75
key=D5
lovel=51
offset=790
sample=Snare_SnareOn_Sticks_Stick_Shot_MF_D3_RR4.opus
</region>

<region>
hivel=127
key=D5
lovel=101
offset=736
sample=Snare_SnareOn_Sticks_Stick_Shot_FF_D3_RR4.opus
</region>

<region>
hivel=100
key=D5
lovel=76
offset=743
sample=Snare_SnareOn_Sticks_Stick_Shot_F_D3_RR4.opus
</region>

<region>
hivel=25
key=D#5
lovel=0
offset=865
sample=Snare_SnareOn_Sticks_Rim_Knock_P_D3_RR4.opus
</region>

<region>
hivel=50
key=D#5
lovel=26
offset=919
sample=Snare_SnareOn_Sticks_Rim_Knock_MP_D3_RR4.opus
</region>

<region>
hivel=75
key=D#5
lovel=51
offset=834
sample=Snare_SnareOn_Sticks_Rim_Knock_MF_D3_RR4.opus
</region>

<region>
hivel=127
key=D#5
lovel=101
offset=855
sample=Snare_SnareOn_Sticks_Rim_Knock_FF_D3_RR4.opus
</region>

<region>
hivel=100
key=D#5
lovel=76
offset=765
sample=Snare_SnareOn_Sticks_Rim_Knock_F_D3_RR4.opus
</region>

<region>
hivel=25
key=E5
lovel=0
offset=744
sample=Snare_SnareOn_Sticks_Ping_Shot_P_D3_RR4.opus
</region>

<region>
hivel=50
key=E5
lovel=26
offset=747
sample=Snare_SnareOn_Sticks_Ping_Shot_MP_D3_RR4.opus
</region>

<region>
hivel=75
key=E5
lovel=51
offset=596
sample=Snare_SnareOn_Sticks_Ping_Shot_MF_D3_RR4.opus
</region>

<region>
hivel=127
key=E5
lovel=101
offset=696
sample=Snare_SnareOn_Sticks_Ping_Shot_FF_D3_RR4.opus
</region>

<region>
hivel=100
key=E5
lovel=76
offset=676
sample=Snare_SnareOn_Sticks_Ping_Shot_F_D3_RR4.opus
</region>

<region>
hivel=25
key=F5
lovel=0
offset=727
sample=Snare_SnareOn_Sticks_Shoulder_Shot_P_D3_RR4.opus
</region>

<region>
hivel=50
key=F5
lovel=26
offset=727
sample=Snare_SnareOn_Sticks_Shoulder_Shot_MP_D3_RR4.opus
</region>

<region>
hivel=75
key=F5
lovel=51
offset=739
sample=Snare_SnareOn_Sticks_Shoulder_Shot_MF_D3_RR4.opus
</region>

<region>
hivel=127
key=F5
lovel=101
offset=699
sample=Snare_SnareOn_Sticks_Shoulder_Shot_FF_D3_RR4.opus
</region>

<region>
hivel=100
key=F5
lovel=76
offset=736
sample=Snare_SnareOn_Sticks_Shoulder_Shot_F_D3_RR4.opus
</region>

<region>
hivel=25
key=F#5
lovel=0
offset=771
sample=Snare_SnareOn_Sticks_Gok_Shot_P_D3_RR4.opus
</region>

<region>
hivel=50
key=F#5
lovel=26
offset=738
sample=Snare_SnareOn_Sticks_Gok_Shot_MP_D3_RR4.opus
</region>

<region>
hivel=75
key=F#5
lovel=51
offset=708
sample=Snare_SnareOn_Sticks_Gok_Shot_MF_D3_RR4.opus
</region>

<region>
hivel=127
key=F#5
lovel=101
offset=714
sample=Snare_SnareOn_Sticks_Gok_Shot_FF_D3_RR4.opus
</region>

<region>
hivel=100
key=F#5
lovel=76
offset=582
sample=Snare_SnareOn_Sticks_Gok_Shot_F_D3_RR4.opus
</region>

<region>
hivel=25
key=D6
lovel=0
offset=3772
sample=Snare_SnareOn_Sticks_Backstick_P_D3_RR4.opus
</region>

<region>
hivel=50
key=D6
lovel=26
offset=864
sample=Snare_SnareOn_Sticks_Backstick_MP_D3_RR4.opus
</region>

<region>
hivel=75
key=D6
lovel=51
offset=864
sample=Snare_SnareOn_Sticks_Backstick_MF_D3_RR4.opus
</region>

<region>
hivel=127
key=D6
lovel=101
offset=765
sample=Snare_SnareOn_Sticks_Backstick_FF_D3_RR4.opus
</region>

<region>
hivel=100
key=D6
lovel=76
offset=770
sample=Snare_SnareOn_Sticks_Backstick_F_D3_RR4.opus
</region>
</group>

<group>
ampeg_release=0.05
group_label=Rolls_RR1_0-25
seq_length=2
seq_position=1
xfin_hicc1=25
xfout_hicc1=50
xfout_locc1=25

<region>
hivel=127
key=D2
loop_end=122328
loop_mode=loop_continuous
loop_start=22145
loop_xfade=11595
lovel=1
sample=Snare_SnareOn_Sticks_Buzz_Roll_P_D3_RR1.opus
</region>

<region>
hivel=127
key=D#2
loop_end=122098
loop_mode=loop_continuous
loop_start=25425
loop_xfade=11573
lovel=1
sample=Snare_SnareOn_Sticks_Halfway_Buzz_Roll_P_D3_RR1.opus
</region>

<region>
hivel=127
key=E2
loop_end=124271
loop_mode=loop_continuous
loop_start=25878
loop_xfade=11779
lovel=1
sample=Snare_SnareOn_Sticks_Edge_Buzz_Roll_P_D3_RR1.opus
</region>

<region>
hivel=127
key=F2
loop_end=121782
loop_mode=loop_continuous
loop_start=25359
loop_xfade=11543
lovel=1
sample=Snare_SnareOn_Sticks_Rim_Buzz_Roll_P_D3_RR1.opus
</region>
</group>

<group>
ampeg_release=0.05
group_label=Rolls_RR1_26-50
seq_length=2
seq_position=1
xfin_hicc1=50
xfin_locc1=26
xfout_hicc1=74
xfout_locc1=50

<region>
hivel=127
key=D2
loop_end=122751
loop_mode=loop_continuous
loop_start=25561
loop_xfade=11635
lovel=1
sample=Snare_SnareOn_Sticks_Buzz_Roll_MP_D3_RR1.opus
</region>

<region>
hivel=127
key=D#2
loop_end=122946
loop_mode=loop_continuous
loop_start=25602
loop_xfade=11653
lovel=1
sample=Snare_SnareOn_Sticks_Halfway_Buzz_Roll_MP_D3_RR1.opus
</region>

<region>
hivel=127
key=E2
loop_end=122759
loop_mode=loop_continuous
loop_start=25563
loop_xfade=11636
lovel=1
sample=Snare_SnareOn_Sticks_Edge_Buzz_Roll_MP_D3_RR1.opus
</region>

<region>
hivel=127
key=F2
loop_end=122871
loop_mode=loop_continuous
loop_start=25586
loop_xfade=11646
lovel=1
sample=Snare_SnareOn_Sticks_Rim_Buzz_Roll_MP_D3_RR1.opus
</region>
</group>

<group>
ampeg_release=0.05
group_label=Rolls_RR1_51-75
seq_length=2
seq_position=1
xfin_hicc1=75
xfin_locc1=51
xfout_hicc1=99
xfout_locc1=75

<region>
hivel=127
key=D2
loop_end=123576
loop_mode=loop_continuous
loop_start=25733
loop_xfade=11713
lovel=1
sample=Snare_SnareOn_Sticks_Buzz_Roll_MF_D3_RR1.opus
</region>

<region>
hivel=127
key=D#2
loop_end=123546
loop_mode=loop_continuous
loop_start=25727
loop_xfade=11710
lovel=1
sample=Snare_SnareOn_Sticks_Halfway_Buzz_Roll_MF_D3_RR1.opus
</region>

<region>
hivel=127
key=E2
loop_end=123782
loop_mode=loop_continuous
loop_start=25776
loop_xfade=11733
lovel=1
sample=Snare_SnareOn_Sticks_Edge_Buzz_Roll_MF_D3_RR1.opus
</region>

<region>
hivel=127
key=F2
loop_end=123029
loop_mode=loop_continuous
loop_start=25619
loop_xfade=11661
lovel=1
sample=Snare_SnareOn_Sticks_Rim_Buzz_Roll_MF_D3_RR1.opus
</region>
</group>

<group>
ampeg_release=0.05
group_label=Rolls_RR1_76-100
seq_length=2
seq_position=1
xfin_hicc1=100
xfin_locc1=76
xfout_hicc1=124
xfout_locc1=100

<region>
hivel=127
key=D2
loop_end=123286
loop_mode=loop_continuous
loop_start=25673
loop_xfade=11685
lovel=1
sample=Snare_SnareOn_Sticks_Buzz_Roll_F_D3_RR1.opus
</region>

<region>
hivel=127
key=D#2
loop_end=124061
loop_mode=loop_continuous
loop_start=25834
loop_xfade=11759
lovel=1
sample=Snare_SnareOn_Sticks_Halfway_Buzz_Roll_F_D3_RR1.opus
</region>

<region>
hivel=127
key=E2
loop_end=123107
loop_mode=loop_continuous
loop_start=25635
loop_xfade=11669
lovel=1
sample=Snare_SnareOn_Sticks_Edge_Buzz_Roll_F_D3_RR1.opus
</region>

<region>
hivel=127
key=F2
loop_end=121828
loop_mode=loop_continuous
loop_start=25369
loop_xfade=11547
lovel=1
sample=Snare_SnareOn_Sticks_Rim_Buzz_Roll_F_D3_RR1.opus
</region>
</group>

<group>
ampeg_release=0.05
group_label=Rolls_RR1_101-127
seq_length=2
seq_position=1
xfin_hicc1=127
xfin_locc1=101
xfout_hicc1=127
xfout_locc1=127

<region>
hivel=127
key=D2
loop_end=122262
loop_mode=loop_continuous
loop_start=25460
loop_xfade=11588
lovel=1
sample=Snare_SnareOn_Sticks_Buzz_Roll_FF_D3_RR1.opus
</region>

<region>
hivel=127
key=D#2
loop_end=122838
loop_mode=loop_continuous
loop_start=25579
loop_xfade=11643
lovel=1
sample=Snare_SnareOn_Sticks_Halfway_Buzz_Roll_FF_D3_RR1.opus
</region>

<region>
hivel=127
key=E2
loop_end=122788
loop_mode=loop_continuous
loop_start=25569
loop_xfade=11638
lovel=1
sample=Snare_SnareOn_Sticks_Edge_Buzz_Roll_FF_D3_RR1.opus
</region>

<region>
hivel=127
key=F2
loop_end=122923
loop_mode=loop_continuous
loop_start=25597
loop_xfade=11651
lovel=1
sample=Snare_SnareOn_Sticks_Rim_Buzz_Roll_FF_D3_RR1.opus
</region>
</group>

<group>
ampeg_release=0.05
group_label=Rolls_RR2_0-25
seq_length=2
seq_position=2
xfin_hicc1=25
xfout_hicc1=50
xfout_locc1=25

<region>
hivel=127
key=D2
loop_end=121751
loop_mode=loop_continuous
loop_start=25353
loop_xfade=11540
lovel=1
sample=Snare_SnareOn_Sticks_Buzz_Roll_P_D3_RR2.opus
</region>

<region>
hivel=127
key=D#2
loop_end=122458
loop_mode=loop_continuous
loop_start=25500
loop_xfade=11607
lovel=1
sample=Snare_SnareOn_Sticks_Halfway_Buzz_Roll_P_D3_RR2.opus
</region>

<region>
hivel=127
key=E2
loop_end=123312
loop_mode=loop_continuous
loop_start=25678
loop_xfade=11688
lovel=1
sample=Snare_SnareOn_Sticks_Edge_Buzz_Roll_P_D3_RR2.opus
</region>

<region>
hivel=127
key=F2
loop_end=122118
loop_mode=loop_continuous
loop_start=25429
loop_xfade=11575
lovel=1
sample=Snare_SnareOn_Sticks_Rim_Buzz_Roll_P_D3_RR2.opus
</region>
</group>

<group>
ampeg_release=0.05
group_label=Rolls_RR2_26-50
seq_length=2
seq_position=2
xfin_hicc1=50
xfin_locc1=26
xfout_hicc1=74
xfout_locc1=50

<region>
hivel=127
key=D2
loop_end=122296
loop_mode=loop_continuous
loop_start=25467
loop_xfade=11592
lovel=1
sample=Snare_SnareOn_Sticks_Buzz_Roll_MP_D3_RR2.opus
</region>

<region>
hivel=127
key=D#2
loop_end=122812
loop_mode=loop_continuous
loop_start=25574
loop_xfade=11641
lovel=1
sample=Snare_SnareOn_Sticks_Halfway_Buzz_Roll_MP_D3_RR2.opus
</region>

<region>
hivel=127
key=E2
loop_end=122492
loop_mode=loop_continuous
loop_start=25507
loop_xfade=11610
lovel=1
sample=Snare_SnareOn_Sticks_Edge_Buzz_Roll_MP_D3_RR2.opus
</region>

<region>
hivel=127
key=F2
loop_end=122591
loop_mode=loop_continuous
loop_start=25528
loop_xfade=11620
lovel=1
sample=Snare_SnareOn_Sticks_Rim_Buzz_Roll_MP_D3_RR2.opus
</region>
</group>

<group>
ampeg_release=0.05
group_label=Rolls_RR2_51-75
seq_length=2
seq_position=2
xfin_hicc1=75
xfin_locc1=51
xfout_hicc1=99
xfout_locc1=75

<region>
hivel=127
key=D2
loop_end=122883
loop_mode=loop_continuous
loop_start=25589
loop_xfade=11647
lovel=1
sample=Snare_SnareOn_Sticks_Buzz_Roll_MF_D3_RR2.opus
</region>

<region>
hivel=127
key=D#2
loop_end=123030
loop_mode=loop_continuous
loop_start=25619
loop_xfade=11661
lovel=1
sample=Snare_SnareOn_Sticks_Halfway_Buzz_Roll_MF_D3_RR2.opus
</region>

<region>
hivel=127
key=E2
loop_end=123134
loop_mode=loop_continuous
loop_start=25641
loop_xfade=11671
lovel=1
sample=Snare_SnareOn_Sticks_Edge_Buzz_Roll_MF_D3_RR2.opus
</region>

<region>
hivel=127
key=F2
loop_end=122747
loop_mode=loop_continuous
loop_start=25560
loop_xfade=11634
lovel=1
sample=Snare_SnareOn_Sticks_Rim_Buzz_Roll_MF_D3_RR2.opus
</region>
</group>

<group>
ampeg_release=0.05
group_label=Rolls_RR2_76-100
seq_length=2
seq_position=2
xfin_hicc1=100
xfin_locc1=76
xfout_hicc1=124
xfout_locc1=100

<region>
hivel=127
key=D2
loop_end=122853
loop_mode=loop_continuous
loop_start=25583
loop_xfade=11644
lovel=1
sample=Snare_SnareOn_Sticks_Buzz_Roll_F_D3_RR2.opus
</region>

<region>
hivel=127
key=D#2
loop_end=123235
loop_mode=loop_continuous
loop_start=25662
loop_xfade=11681
lovel=1
sample=Snare_SnareOn_Sticks_Halfway_Buzz_Roll_F_D3_RR2.opus
</region>

<region>
hivel=127
key=E2
loop_end=122867
loop_mode=loop_continuous
loop_start=25586
loop_xfade=11646
lovel=1
sample=Snare_SnareOn_Sticks_Edge_Buzz_Roll_F_D3_RR2.opus
</region>

<region>
hivel=127
key=F2
loop_end=123793
loop_mode=loop_continuous
loop_start=25778
loop_xfade=11734
lovel=1
sample=Snare_SnareOn_Sticks_Rim_Buzz_Roll_F_D3_RR2.opus
</region>
</group>

<group>
ampeg_release=0.05
group_label=Rolls_RR2_101-127
seq_length=2
seq_position=2
xfin_hicc1=127
xfin_locc1=101
xfout_hicc1=127
xfout_locc1=127

<region>
hivel=127
key=D2
loop_end=122747
loop_mode=loop_continuous
loop_start=25560
loop_xfade=11634
lovel=1
sample=Snare_SnareOn_Sticks_Buzz_Roll_FF_D3_RR2.opus
</region>

<region>
hivel=127
key=D#2
loop_end=122516
loop_mode=loop_continuous
loop_start=25512
loop_xfade=11613
lovel=1
sample=Snare_SnareOn_Sticks_Halfway_Buzz_Roll_FF_D3_RR2.opus
</region>

<region>
hivel=127
key=E2
loop_end=122489
loop_mode=loop_continuous
loop_start=25507
loop_xfade=11610
lovel=1
sample=Snare_SnareOn_Sticks_Edge_Buzz_Roll_FF_D3_RR2.opus
</region>

<region>
hivel=127
key=F2
loop_end=121625
loop_mode=loop_continuous
loop_start=25327
loop_xfade=11528
lovel=1
sample=Snare_SnareOn_Sticks_Rim_Buzz_Roll_FF_D3_RR2.opus
</region>
</group>

<group>
amp_veltrack=0
ampeg_attack=0.01
ampeg_release=1.95
group_label=Rolls_RR1_RELEASE_0-25
offset=128000
seq_length=2
seq_position=1
trigger=release
xfin_hicc1=25
xfout_hicc1=50
xfout_locc1=25

<region>
hivel=127
key=D2
lovel=1
sample=Snare_SnareOn_Sticks_Buzz_Roll_P_D3_RR1.opus
</region>

<region>
hivel=127
key=D#2
lovel=1
sample=Snare_SnareOn_Sticks_Halfway_Buzz_Roll_P_D3_RR1.opus
</region>

<region>
hivel=127
key=E2
lovel=1
sample=Snare_SnareOn_Sticks_Edge_Buzz_Roll_P_D3_RR1.opus
</region>

<region>
hivel=127
key=F2
lovel=1
sample=Snare_SnareOn_Sticks_Rim_Buzz_Roll_P_D3_RR1.opus
</region>
</group>

<group>
amp_veltrack=0
ampeg_attack=0.01
ampeg_release=1.95
group_label=Rolls_RR1_RELEASE_26-50
offset=128000
seq_length=2
seq_position=1
trigger=release
xfin_hicc1=50
xfin_locc1=26
xfout_hicc1=74
xfout_locc1=50

<region>
hivel=127
key=D2
lovel=1
sample=Snare_SnareOn_Sticks_Buzz_Roll_MP_D3_RR1.opus
</region>

<region>
hivel=127
key=D#2
lovel=1
sample=Snare_SnareOn_Sticks_Halfway_Buzz_Roll_MP_D3_RR1.opus
</region>

<region>
hivel=127
key=E2
lovel=1
sample=Snare_SnareOn_Sticks_Edge_Buzz_Roll_MP_D3_RR1.opus
</region>

<region>
hivel=127
key=F2
lovel=1
sample=Snare_SnareOn_Sticks_Rim_Buzz_Roll_MP_D3_RR1.opus
</region>
</group>

<group>
amp_veltrack=0
ampeg_attack=0.01
ampeg_release=1.95
group_label=Rolls_RR1_RELEASE_51-75
offset=128000
seq_length=2
seq_position=1
trigger=release
xfin_hicc1=75
xfin_locc1=51
xfout_hicc1=99
xfout_locc1=75

<region>
hivel=127
key=D2
lovel=1
sample=Snare_SnareOn_Sticks_Buzz_Roll_MF_D3_RR1.opus
</region>

<region>
hivel=127
key=D#2
lovel=1
sample=Snare_SnareOn_Sticks_Halfway_Buzz_Roll_MF_D3_RR1.opus
</region>

<region>
hivel=127
key=E2
lovel=1
sample=Snare_SnareOn_Sticks_Edge_Buzz_Roll_MF_D3_RR1.opus
</region>

<region>
hivel=127
key=F2
lovel=1
sample=Snare_SnareOn_Sticks_Rim_Buzz_Roll_MF_D3_RR1.opus
</region>
</group>

<group>
amp_veltrack=0
ampeg_attack=0.01
ampeg_release=1.95
group_label=Rolls_RR1_RELEASE_76-100
offset=128000
seq_length=2
seq_position=1
trigger=release
xfin_hicc1=100
xfin_locc1=76
xfout_hicc1=124
xfout_locc1=100

<region>
hivel=127
key=D2
lovel=1
sample=Snare_SnareOn_Sticks_Buzz_Roll_F_D3_RR1.opus
</region>

<region>
hivel=127
key=D#2
lovel=1
sample=Snare_SnareOn_Sticks_Halfway_Buzz_Roll_F_D3_RR1.opus
</region>

<region>
hivel=127
key=E2
lovel=1
sample=Snare_SnareOn_Sticks_Edge_Buzz_Roll_F_D3_RR1.opus
</region>

<region>
hivel=127
key=F2
lovel=1
sample=Snare_SnareOn_Sticks_Rim_Buzz_Roll_F_D3_RR1.opus
</region>
</group>

<group>
amp_veltrack=0
ampeg_attack=0.01
ampeg_release=1.95
group_label=Rolls_RR1_RELEASE_101-127
offset=128000
seq_length=2
seq_position=1
trigger=release
xfin_hicc1=127
xfin_locc1=101
xfout_hicc1=127
xfout_locc1=127

<region>
hivel=127
key=D2
lovel=1
sample=Snare_SnareOn_Sticks_Buzz_Roll_FF_D3_RR1.opus
</region>

<region>
hivel=127
key=D#2
lovel=1
sample=Snare_SnareOn_Sticks_Halfway_Buzz_Roll_FF_D3_RR1.opus
</region>

<region>
hivel=127
key=E2
lovel=1
sample=Snare_SnareOn_Sticks_Edge_Buzz_Roll_FF_D3_RR1.opus
</region>

<region>
hivel=127
key=F2
lovel=1
sample=Snare_SnareOn_Sticks_Rim_Buzz_Roll_FF_D3_RR1.opus
</region>
</group>

<group>
amp_veltrack=0
ampeg_attack=0.01
ampeg_release=1.95
group_label=Rolls_RR2_RELEASE_0-25
offset=128000
seq_length=2
seq_position=2
trigger=release
xfin_hicc1=25
xfout_hicc1=50
xfout_locc1=25

<region>
hivel=127
key=D2
lovel=1
sample=Snare_SnareOn_Sticks_Buzz_Roll_P_D3_RR2.opus
</region>

<region>
hivel=127
key=D#2
lovel=1
sample=Snare_SnareOn_Sticks_Halfway_Buzz_Roll_P_D3_RR2.opus
</region>

<region>
hivel=127
key=E2
lovel=1
sample=Snare_SnareOn_Sticks_Edge_Buzz_Roll_P_D3_RR2.opus
</region>

<region>
hivel=127
key=F2
lovel=1
sample=Snare_SnareOn_Sticks_Rim_Buzz_Roll_P_D3_RR2.opus
</region>
</group>

<group>
amp_veltrack=0
ampeg_attack=0.01
ampeg_release=1.95
group_label=Rolls_RR2_RELEASE_51-75
offset=128000
seq_length=2
seq_position=2
trigger=release
xfin_hicc1=75
xfin_locc1=51
xfout_hicc1=99
xfout_locc1=75

<region>
hivel=127
key=D2
lovel=1
sample=Snare_SnareOn_Sticks_Buzz_Roll_MF_D3_RR2.opus
</region>

<region>
hivel=127
key=D#2
lovel=1
sample=Snare_SnareOn_Sticks_Halfway_Buzz_Roll_MF_D3_RR2.opus
</region>

<region>
hivel=127
key=E2
lovel=1
sample=Snare_SnareOn_Sticks_Edge_Buzz_Roll_MF_D3_RR2.opus
</region>

<region>
hivel=127
key=F2
lovel=1
sample=Snare_SnareOn_Sticks_Rim_Buzz_Roll_MF_D3_RR2.opus
</region>
</group>

<group>
amp_veltrack=0
ampeg_attack=0.01
ampeg_release=1.95
group_label=Rolls_RR2_RELEASE_26-50
offset=128000
seq_length=2
seq_position=2
trigger=release
xfin_hicc1=50
xfin_locc1=26
xfout_hicc1=74
xfout_locc1=50

<region>
hivel=127
key=D2
lovel=1
sample=Snare_SnareOn_Sticks_Buzz_Roll_MP_D3_RR2.opus
</region>

<region>
hivel=127
key=D#2
lovel=1
sample=Snare_SnareOn_Sticks_Halfway_Buzz_Roll_MP_D3_RR2.opus
</region>

<region>
hivel=127
key=E2
lovel=1
sample=Snare_SnareOn_Sticks_Edge_Buzz_Roll_MP_D3_RR2.opus
</region>

<region>
hivel=127
key=F2
lovel=1
sample=Snare_SnareOn_Sticks_Rim_Buzz_Roll_MP_D3_RR2.opus
</region>
</group>

<group>
amp_veltrack=0
ampeg_attack=0.01
ampeg_release=1.95
group_label=Rolls_RR2_RELEASE_76-100
offset=128000
seq_length=2
seq_position=2
trigger=release
xfin_hicc1=100
xfin_locc1=76
xfout_hicc1=124
xfout_locc1=100

<region>
hivel=127
key=D2
lovel=1
sample=Snare_SnareOn_Sticks_Buzz_Roll_F_D3_RR2.opus
</region>

<region>
hivel=127
key=D#2
lovel=1
sample=Snare_SnareOn_Sticks_Halfway_Buzz_Roll_F_D3_RR2.opus
</region>

<region>
hivel=127
key=E2
lovel=1
sample=Snare_SnareOn_Sticks_Edge_Buzz_Roll_F_D3_RR2.opus
</region>

<region>
hivel=127
key=F2
lovel=1
sample=Snare_SnareOn_Sticks_Rim_Buzz_Roll_F_D3_RR2.opus
</region>
</group>

<group>
amp_veltrack=0
ampeg_attack=0.01
ampeg_release=1.95
group_label=Rolls_RR2_RELEASE_101-127
offset=128000
seq_length=2
seq_position=2
trigger=release
xfin_hicc1=127
xfin_locc1=101
xfout_hicc1=127
xfout_locc1=127

<region>
hivel=127
key=D2
lovel=1
sample=Snare_SnareOn_Sticks_Buzz_Roll_FF_D3_RR2.opus
</region>

<region>
hivel=127
key=D#2
lovel=1
sample=Snare_SnareOn_Sticks_Halfway_Buzz_Roll_FF_D3_RR2.opus
</region>

<region>
hivel=127
key=E2
lovel=1
sample=Snare_SnareOn_Sticks_Edge_Buzz_Roll_FF_D3_RR2.opus
</region>

<region>
hivel=127
key=F2
lovel=1
sample=Snare_SnareOn_Sticks_Rim_Buzz_Roll_FF_D3_RR2.opus
</region>
</group>